<mxfile host="Electron" modified="2024-04-03T08:41:29.406Z" agent="Mozilla/5.0 (Macintosh; Intel Mac OS X 10_15_7) AppleWebKit/537.36 (KHTML, like Gecko) draw.io/24.1.0 Chrome/120.0.6099.109 Electron/28.1.0 Safari/537.36" etag="N39HZq7dA8mOmAxzjVHr" version="24.1.0" type="device" pages="3">
  <diagram name="Overview" id="Ci2HlTppvsZ_2pQZNLZ-">
    <mxGraphModel dx="1641" dy="1115" grid="1" gridSize="10" guides="1" tooltips="1" connect="1" arrows="1" fold="1" page="1" pageScale="1" pageWidth="827" pageHeight="1169" math="0" shadow="0">
      <root>
        <mxCell id="0" />
        <mxCell id="1" parent="0" />
        <mxCell id="CUu8jus_2sVUzZU3FUJG-1" value="" style="rounded=0;whiteSpace=wrap;html=1;fillColor=#dae8fc;strokeColor=#6c8ebf;" parent="1" vertex="1">
          <mxGeometry x="373.5" y="60" width="120" height="60" as="geometry" />
        </mxCell>
        <mxCell id="CUu8jus_2sVUzZU3FUJG-2" value="" style="rounded=0;whiteSpace=wrap;html=1;fillColor=#dae8fc;strokeColor=#6c8ebf;" parent="1" vertex="1">
          <mxGeometry x="383.5" y="70" width="120" height="60" as="geometry" />
        </mxCell>
        <mxCell id="CUu8jus_2sVUzZU3FUJG-3" value="Components&lt;div&gt;Instance B&lt;/div&gt;" style="rounded=0;whiteSpace=wrap;html=1;fillColor=#dae8fc;strokeColor=#6c8ebf;" parent="1" vertex="1">
          <mxGeometry x="393.5" y="80" width="120" height="60" as="geometry" />
        </mxCell>
        <mxCell id="CUu8jus_2sVUzZU3FUJG-4" value="Instance A" style="ellipse;shape=cloud;whiteSpace=wrap;html=1;fillColor=#fff2cc;strokeColor=#d6b656;" parent="1" vertex="1">
          <mxGeometry x="34" y="551.67" width="120" height="80" as="geometry" />
        </mxCell>
        <mxCell id="CUu8jus_2sVUzZU3FUJG-6" value="Instance B" style="ellipse;shape=cloud;whiteSpace=wrap;html=1;fillColor=#dae8fc;strokeColor=#6c8ebf;" parent="1" vertex="1">
          <mxGeometry x="230" y="551.67" width="120" height="80" as="geometry" />
        </mxCell>
        <mxCell id="CUu8jus_2sVUzZU3FUJG-7" value="ProductService" style="shape=parallelogram;perimeter=parallelogramPerimeter;whiteSpace=wrap;html=1;fixedSize=1;fillColor=#d5e8d4;strokeColor=#82b366;gradientColor=none;fillStyle=zigzag-line;" parent="1" vertex="1">
          <mxGeometry x="610" y="100" width="120" height="60" as="geometry" />
        </mxCell>
        <mxCell id="CUu8jus_2sVUzZU3FUJG-8" value="PoolService" style="shape=parallelogram;perimeter=parallelogramPerimeter;whiteSpace=wrap;html=1;fixedSize=1;fillColor=#d5e8d4;strokeColor=#82b366;gradientColor=none;fillStyle=zigzag-line;" parent="1" vertex="1">
          <mxGeometry x="610" y="180" width="120" height="60" as="geometry" />
        </mxCell>
        <mxCell id="CUu8jus_2sVUzZU3FUJG-9" value="Distribution&lt;br&gt;Service" style="shape=parallelogram;perimeter=parallelogramPerimeter;whiteSpace=wrap;html=1;fixedSize=1;fillColor=#d5e8d4;strokeColor=#82b366;gradientColor=none;fillStyle=zigzag-line;" parent="1" vertex="1">
          <mxGeometry x="610" y="260" width="120" height="60" as="geometry" />
        </mxCell>
        <mxCell id="CUu8jus_2sVUzZU3FUJG-10" value="ClaimService" style="shape=parallelogram;perimeter=parallelogramPerimeter;whiteSpace=wrap;html=1;fixedSize=1;fillColor=#d5e8d4;strokeColor=#82b366;gradientColor=none;fillStyle=zigzag-line;" parent="1" vertex="1">
          <mxGeometry x="610" y="340" width="120" height="60" as="geometry" />
        </mxCell>
        <mxCell id="CUu8jus_2sVUzZU3FUJG-11" value="" style="shape=cylinder3;whiteSpace=wrap;html=1;boundedLbl=1;backgroundOutline=1;size=15;fillColor=#dae8fc;strokeColor=#6c8ebf;" parent="1" vertex="1">
          <mxGeometry x="260" y="661.67" width="60" height="80" as="geometry" />
        </mxCell>
        <mxCell id="CUu8jus_2sVUzZU3FUJG-13" value="" style="shape=cylinder3;whiteSpace=wrap;html=1;boundedLbl=1;backgroundOutline=1;size=15;fillColor=#fff2cc;strokeColor=#d6b656;" parent="1" vertex="1">
          <mxGeometry x="70" y="661.67" width="60" height="80" as="geometry" />
        </mxCell>
        <mxCell id="CUu8jus_2sVUzZU3FUJG-14" value="" style="rounded=0;whiteSpace=wrap;html=1;fillColor=#dae8fc;strokeColor=#6c8ebf;" parent="1" vertex="1">
          <mxGeometry x="220" y="60" width="120" height="60" as="geometry" />
        </mxCell>
        <mxCell id="CUu8jus_2sVUzZU3FUJG-15" value="" style="rounded=0;whiteSpace=wrap;html=1;fillColor=#dae8fc;strokeColor=#6c8ebf;" parent="1" vertex="1">
          <mxGeometry x="230" y="70" width="120" height="60" as="geometry" />
        </mxCell>
        <mxCell id="CUu8jus_2sVUzZU3FUJG-16" value="Components&amp;nbsp;&lt;div&gt;Instance B&lt;/div&gt;" style="rounded=0;whiteSpace=wrap;html=1;fillColor=#dae8fc;strokeColor=#6c8ebf;" parent="1" vertex="1">
          <mxGeometry x="240" y="80" width="120" height="60" as="geometry" />
        </mxCell>
        <mxCell id="CUu8jus_2sVUzZU3FUJG-17" value="" style="rounded=0;whiteSpace=wrap;html=1;fillColor=#fff2cc;strokeColor=#d6b656;" parent="1" vertex="1">
          <mxGeometry x="10" y="230" width="120" height="60" as="geometry" />
        </mxCell>
        <mxCell id="CUu8jus_2sVUzZU3FUJG-18" value="" style="rounded=0;whiteSpace=wrap;html=1;fillColor=#fff2cc;strokeColor=#d6b656;" parent="1" vertex="1">
          <mxGeometry x="20" y="240" width="120" height="60" as="geometry" />
        </mxCell>
        <mxCell id="CUu8jus_2sVUzZU3FUJG-19" value="Components&lt;br&gt;Instance A" style="rounded=0;whiteSpace=wrap;html=1;fillColor=#fff2cc;strokeColor=#d6b656;" parent="1" vertex="1">
          <mxGeometry x="30" y="250" width="120" height="60" as="geometry" />
        </mxCell>
        <mxCell id="CUu8jus_2sVUzZU3FUJG-20" value="PayoutService" style="shape=parallelogram;perimeter=parallelogramPerimeter;whiteSpace=wrap;html=1;fixedSize=1;fillColor=#d5e8d4;strokeColor=#82b366;gradientColor=none;fillStyle=zigzag-line;" parent="1" vertex="1">
          <mxGeometry x="610" y="420" width="120" height="60" as="geometry" />
        </mxCell>
        <mxCell id="CUu8jus_2sVUzZU3FUJG-21" value="" style="endArrow=none;dashed=1;html=1;dashPattern=1 3;strokeWidth=2;rounded=0;" parent="1" edge="1">
          <mxGeometry width="50" height="50" relative="1" as="geometry">
            <mxPoint x="660" y="590" as="sourcePoint" />
            <mxPoint x="660" y="500" as="targetPoint" />
          </mxGeometry>
        </mxCell>
        <mxCell id="CUu8jus_2sVUzZU3FUJG-22" value="" style="endArrow=classic;startArrow=classic;html=1;rounded=0;exitX=0.5;exitY=0;exitDx=0;exitDy=0;exitPerimeter=0;" parent="1" source="CUu8jus_2sVUzZU3FUJG-11" target="CUu8jus_2sVUzZU3FUJG-6" edge="1">
          <mxGeometry width="50" height="50" relative="1" as="geometry">
            <mxPoint x="380" y="741.67" as="sourcePoint" />
            <mxPoint x="430" y="691.67" as="targetPoint" />
          </mxGeometry>
        </mxCell>
        <mxCell id="CUu8jus_2sVUzZU3FUJG-23" value="" style="endArrow=classic;startArrow=classic;html=1;rounded=0;exitX=0.5;exitY=0;exitDx=0;exitDy=0;exitPerimeter=0;entryX=0.55;entryY=0.95;entryDx=0;entryDy=0;entryPerimeter=0;" parent="1" source="CUu8jus_2sVUzZU3FUJG-13" target="CUu8jus_2sVUzZU3FUJG-4" edge="1">
          <mxGeometry width="50" height="50" relative="1" as="geometry">
            <mxPoint x="300" y="671.67" as="sourcePoint" />
            <mxPoint x="300" y="641.67" as="targetPoint" />
          </mxGeometry>
        </mxCell>
        <mxCell id="CUu8jus_2sVUzZU3FUJG-25" value="" style="endArrow=classic;html=1;rounded=0;entryX=0.5;entryY=1;entryDx=0;entryDy=0;exitX=0.4;exitY=0.1;exitDx=0;exitDy=0;exitPerimeter=0;" parent="1" source="CUu8jus_2sVUzZU3FUJG-4" target="CUu8jus_2sVUzZU3FUJG-19" edge="1">
          <mxGeometry width="50" height="50" relative="1" as="geometry">
            <mxPoint x="440" y="590" as="sourcePoint" />
            <mxPoint x="490" y="540" as="targetPoint" />
          </mxGeometry>
        </mxCell>
        <mxCell id="CUu8jus_2sVUzZU3FUJG-26" value="Read" style="edgeLabel;html=1;align=center;verticalAlign=middle;resizable=0;points=[];" parent="CUu8jus_2sVUzZU3FUJG-25" vertex="1" connectable="0">
          <mxGeometry x="-0.4209" y="-3" relative="1" as="geometry">
            <mxPoint as="offset" />
          </mxGeometry>
        </mxCell>
        <mxCell id="CUu8jus_2sVUzZU3FUJG-27" value="" style="endArrow=classic;html=1;rounded=0;exitX=1;exitY=0.5;exitDx=0;exitDy=0;entryX=0;entryY=0.5;entryDx=0;entryDy=0;" parent="1" source="CUu8jus_2sVUzZU3FUJG-19" target="CUu8jus_2sVUzZU3FUJG-9" edge="1">
          <mxGeometry width="50" height="50" relative="1" as="geometry">
            <mxPoint x="440" y="590" as="sourcePoint" />
            <mxPoint x="490" y="540" as="targetPoint" />
          </mxGeometry>
        </mxCell>
        <mxCell id="CUu8jus_2sVUzZU3FUJG-28" value="Write" style="edgeLabel;html=1;align=center;verticalAlign=middle;resizable=0;points=[];" parent="CUu8jus_2sVUzZU3FUJG-27" vertex="1" connectable="0">
          <mxGeometry x="0.0296" y="2" relative="1" as="geometry">
            <mxPoint as="offset" />
          </mxGeometry>
        </mxCell>
        <mxCell id="CUu8jus_2sVUzZU3FUJG-33" value="" style="endArrow=classic;startArrow=classic;html=1;rounded=0;entryX=0;entryY=1;entryDx=0;entryDy=0;exitX=0.88;exitY=0.25;exitDx=0;exitDy=0;exitPerimeter=0;" parent="1" source="CUu8jus_2sVUzZU3FUJG-6" target="CUu8jus_2sVUzZU3FUJG-9" edge="1">
          <mxGeometry width="50" height="50" relative="1" as="geometry">
            <mxPoint x="440" y="590" as="sourcePoint" />
            <mxPoint x="490" y="540" as="targetPoint" />
          </mxGeometry>
        </mxCell>
        <mxCell id="CUu8jus_2sVUzZU3FUJG-40" value="read / write" style="edgeLabel;html=1;align=center;verticalAlign=middle;resizable=0;points=[];" parent="CUu8jus_2sVUzZU3FUJG-33" vertex="1" connectable="0">
          <mxGeometry x="-0.1024" relative="1" as="geometry">
            <mxPoint as="offset" />
          </mxGeometry>
        </mxCell>
        <mxCell id="CUu8jus_2sVUzZU3FUJG-34" value="Registry" style="ellipse;shape=cloud;whiteSpace=wrap;html=1;fillColor=#f8cecc;strokeColor=#b85450;" parent="1" vertex="1">
          <mxGeometry x="680" y="690" width="120" height="80" as="geometry" />
        </mxCell>
        <mxCell id="CUu8jus_2sVUzZU3FUJG-35" value="" style="endArrow=classic;html=1;rounded=0;fillColor=#f8cecc;strokeColor=#b85450;dashed=1;dashPattern=8 8;entryX=0.07;entryY=0.4;entryDx=0;entryDy=0;entryPerimeter=0;" parent="1" source="CUu8jus_2sVUzZU3FUJG-6" target="CUu8jus_2sVUzZU3FUJG-34" edge="1">
          <mxGeometry width="50" height="50" relative="1" as="geometry">
            <mxPoint x="440" y="590" as="sourcePoint" />
            <mxPoint x="490" y="540" as="targetPoint" />
          </mxGeometry>
        </mxCell>
        <mxCell id="CUu8jus_2sVUzZU3FUJG-36" value="" style="endArrow=classic;html=1;rounded=0;fillColor=#f8cecc;strokeColor=#b85450;dashed=1;dashPattern=8 8;exitX=0.8;exitY=0.8;exitDx=0;exitDy=0;exitPerimeter=0;entryX=0.07;entryY=0.4;entryDx=0;entryDy=0;entryPerimeter=0;" parent="1" source="CUu8jus_2sVUzZU3FUJG-4" target="CUu8jus_2sVUzZU3FUJG-34" edge="1">
          <mxGeometry width="50" height="50" relative="1" as="geometry">
            <mxPoint x="404" y="477" as="sourcePoint" />
            <mxPoint x="826" y="733" as="targetPoint" />
          </mxGeometry>
        </mxCell>
        <mxCell id="CUu8jus_2sVUzZU3FUJG-37" value="" style="endArrow=classic;html=1;rounded=0;fillColor=#f8cecc;strokeColor=#b85450;dashed=1;dashPattern=8 8;entryX=0.25;entryY=0.25;entryDx=0;entryDy=0;entryPerimeter=0;exitX=1;exitY=1;exitDx=0;exitDy=0;" parent="1" source="CUu8jus_2sVUzZU3FUJG-19" target="CUu8jus_2sVUzZU3FUJG-34" edge="1">
          <mxGeometry width="50" height="50" relative="1" as="geometry">
            <mxPoint x="404" y="477" as="sourcePoint" />
            <mxPoint x="840" y="740" as="targetPoint" />
          </mxGeometry>
        </mxCell>
        <mxCell id="CUu8jus_2sVUzZU3FUJG-38" value="" style="endArrow=classic;html=1;rounded=0;fillColor=#f8cecc;strokeColor=#b85450;dashed=1;dashPattern=8 8;exitX=0.75;exitY=1;exitDx=0;exitDy=0;entryX=0.625;entryY=0.2;entryDx=0;entryDy=0;entryPerimeter=0;" parent="1" source="CUu8jus_2sVUzZU3FUJG-20" target="CUu8jus_2sVUzZU3FUJG-34" edge="1">
          <mxGeometry width="50" height="50" relative="1" as="geometry">
            <mxPoint x="160" y="275" as="sourcePoint" />
            <mxPoint x="728" y="700" as="targetPoint" />
          </mxGeometry>
        </mxCell>
        <mxCell id="CUu8jus_2sVUzZU3FUJG-39" value="" style="endArrow=classic;html=1;rounded=0;fillColor=#f8cecc;strokeColor=#b85450;dashed=1;dashPattern=8 8;entryX=0.625;entryY=0.2;entryDx=0;entryDy=0;entryPerimeter=0;exitX=1;exitY=0.5;exitDx=0;exitDy=0;" parent="1" source="CUu8jus_2sVUzZU3FUJG-10" target="CUu8jus_2sVUzZU3FUJG-34" edge="1">
          <mxGeometry width="50" height="50" relative="1" as="geometry">
            <mxPoint x="710" y="490" as="sourcePoint" />
            <mxPoint x="858" y="728" as="targetPoint" />
          </mxGeometry>
        </mxCell>
      </root>
    </mxGraphModel>
  </diagram>
  <diagram id="9t9NB8n9KtFixqCDeO52" name="Instance">
    <mxGraphModel dx="1641" dy="1115" grid="1" gridSize="10" guides="1" tooltips="1" connect="1" arrows="1" fold="1" page="1" pageScale="1" pageWidth="827" pageHeight="1169" math="0" shadow="0">
      <root>
        <mxCell id="0" />
        <mxCell id="1" parent="0" />
        <mxCell id="-3d_8meNKV9yj-YMQYzu-9" value="" style="rounded=0;whiteSpace=wrap;html=1;fillColor=#dae8fc;strokeColor=#6c8ebf;fillStyle=dots;" vertex="1" parent="1">
          <mxGeometry x="90" y="260" width="560" height="410" as="geometry" />
        </mxCell>
        <mxCell id="-3d_8meNKV9yj-YMQYzu-3" value="&lt;h1 style=&quot;margin-top: 0px;&quot;&gt;Instance&lt;/h1&gt;" style="text;html=1;whiteSpace=wrap;overflow=hidden;rounded=0;" vertex="1" parent="1">
          <mxGeometry x="110" y="260" width="180" height="120" as="geometry" />
        </mxCell>
        <mxCell id="-3d_8meNKV9yj-YMQYzu-6" value="InstanceReader" style="shape=parallelogram;perimeter=parallelogramPerimeter;whiteSpace=wrap;html=1;fixedSize=1;fillColor=#ffe6cc;strokeColor=#d79b00;" vertex="1" parent="1">
          <mxGeometry x="120" y="350" width="120" height="60" as="geometry" />
        </mxCell>
        <mxCell id="-3d_8meNKV9yj-YMQYzu-8" value="InstanceAccessManager" style="shape=parallelogram;perimeter=parallelogramPerimeter;whiteSpace=wrap;html=1;fixedSize=1;fillColor=#d5e8d4;strokeColor=#82b366;" vertex="1" parent="1">
          <mxGeometry x="260" y="350" width="180" height="60" as="geometry" />
        </mxCell>
        <mxCell id="-3d_8meNKV9yj-YMQYzu-10" value="BundleManager" style="shape=parallelogram;perimeter=parallelogramPerimeter;whiteSpace=wrap;html=1;fixedSize=1;fillColor=#e1d5e7;strokeColor=#9673a6;" vertex="1" parent="1">
          <mxGeometry x="460" y="350" width="150" height="60" as="geometry" />
        </mxCell>
        <mxCell id="-3d_8meNKV9yj-YMQYzu-11" value="InstanceStore" style="shape=cylinder3;whiteSpace=wrap;html=1;boundedLbl=1;backgroundOutline=1;size=15;fillColor=#f8cecc;strokeColor=#b85450;" vertex="1" parent="1">
          <mxGeometry x="305" y="500" width="90" height="95" as="geometry" />
        </mxCell>
      </root>
    </mxGraphModel>
  </diagram>
  <diagram name="Component" id="nIZj7efKysAkrLqqJIGW">
    <mxGraphModel dx="1641" dy="1115" grid="1" gridSize="10" guides="1" tooltips="1" connect="1" arrows="1" fold="1" page="1" pageScale="1" pageWidth="827" pageHeight="1169" math="0" shadow="0">
      <root>
        <mxCell id="sUiCVh5vbbhOsQEW06W4-0" />
        <mxCell id="sUiCVh5vbbhOsQEW06W4-1" parent="sUiCVh5vbbhOsQEW06W4-0" />
        <mxCell id="sUiCVh5vbbhOsQEW06W4-2" value="" style="rounded=0;whiteSpace=wrap;html=1;fillColor=#dae8fc;strokeColor=#6c8ebf;fillStyle=dots;" vertex="1" parent="sUiCVh5vbbhOsQEW06W4-1">
          <mxGeometry x="70" y="180" width="410" height="290" as="geometry" />
        </mxCell>
        <mxCell id="sUiCVh5vbbhOsQEW06W4-3" value="&lt;h1 style=&quot;margin-top: 0px;&quot;&gt;Component&lt;/h1&gt;" style="text;html=1;whiteSpace=wrap;overflow=hidden;rounded=0;" vertex="1" parent="sUiCVh5vbbhOsQEW06W4-1">
          <mxGeometry x="110" y="210" width="180" height="120" as="geometry" />
        </mxCell>
        <mxCell id="sUiCVh5vbbhOsQEW06W4-6" value="TokenHandler" style="shape=parallelogram;perimeter=parallelogramPerimeter;whiteSpace=wrap;html=1;fixedSize=1;fillColor=#e1d5e7;strokeColor=#9673a6;" vertex="1" parent="sUiCVh5vbbhOsQEW06W4-1">
          <mxGeometry x="280" y="317.5" width="150" height="60" as="geometry" />
        </mxCell>
        <mxCell id="sUiCVh5vbbhOsQEW06W4-7" value="Wallet" style="shape=cylinder3;whiteSpace=wrap;html=1;boundedLbl=1;backgroundOutline=1;size=15;fillColor=#f8cecc;strokeColor=#b85450;" vertex="1" parent="sUiCVh5vbbhOsQEW06W4-1">
          <mxGeometry x="120" y="300" width="90" height="95" as="geometry" />
        </mxCell>
        <mxCell id="H2K4i8pjiTbeFRll8jWM-0" value="" style="ellipse;shape=cloud;whiteSpace=wrap;html=1;fillColor=#dae8fc;strokeColor=#6c8ebf;fillStyle=zigzag-line;" vertex="1" parent="sUiCVh5vbbhOsQEW06W4-1">
          <mxGeometry x="280" y="600" width="320" height="270" as="geometry" />
        </mxCell>
        <mxCell id="H2K4i8pjiTbeFRll8jWM-1" value="&lt;h1 style=&quot;margin-top: 0px;&quot;&gt;Instance&lt;/h1&gt;" style="text;html=1;whiteSpace=wrap;overflow=hidden;rounded=0;" vertex="1" parent="sUiCVh5vbbhOsQEW06W4-1">
          <mxGeometry x="360" y="675" width="180" height="120" as="geometry" />
        </mxCell>
        <mxCell id="H2K4i8pjiTbeFRll8jWM-3" value="InstanceReader" style="shape=parallelogram;perimeter=parallelogramPerimeter;whiteSpace=wrap;html=1;fixedSize=1;fillColor=#ffe6cc;strokeColor=#d79b00;" vertex="1" parent="sUiCVh5vbbhOsQEW06W4-1">
          <mxGeometry x="360" y="720" width="120" height="60" as="geometry" />
        </mxCell>
        <mxCell id="H2K4i8pjiTbeFRll8jWM-4" value="" style="endArrow=classic;html=1;rounded=0;entryX=0.4;entryY=0.1;entryDx=0;entryDy=0;entryPerimeter=0;exitX=0.75;exitY=1;exitDx=0;exitDy=0;fillColor=#f8cecc;strokeColor=#b85450;dashed=1;dashPattern=12 12;" edge="1" parent="sUiCVh5vbbhOsQEW06W4-1" source="sUiCVh5vbbhOsQEW06W4-2" target="H2K4i8pjiTbeFRll8jWM-0">
          <mxGeometry width="50" height="50" relative="1" as="geometry">
            <mxPoint x="220" y="390" as="sourcePoint" />
            <mxPoint x="270" y="340" as="targetPoint" />
          </mxGeometry>
        </mxCell>
        <mxCell id="xW093bFwyCX6SYe29IJH-0" value="Services" style="shape=parallelogram;perimeter=parallelogramPerimeter;whiteSpace=wrap;html=1;fixedSize=1;fillColor=#d5e8d4;strokeColor=#82b366;gradientColor=none;fillStyle=zigzag-line;" vertex="1" parent="sUiCVh5vbbhOsQEW06W4-1">
          <mxGeometry x="657" y="480" width="120" height="60" as="geometry" />
        </mxCell>
        <mxCell id="xW093bFwyCX6SYe29IJH-5" value="" style="endArrow=none;dashed=1;html=1;dashPattern=1 3;strokeWidth=2;rounded=0;" edge="1" parent="sUiCVh5vbbhOsQEW06W4-1">
          <mxGeometry width="50" height="50" relative="1" as="geometry">
            <mxPoint x="707" y="660" as="sourcePoint" />
            <mxPoint x="707" y="570" as="targetPoint" />
          </mxGeometry>
        </mxCell>
        <mxCell id="xW093bFwyCX6SYe29IJH-7" value="" style="endArrow=classic;html=1;rounded=0;entryX=0;entryY=0.5;entryDx=0;entryDy=0;exitX=1;exitY=0.75;exitDx=0;exitDy=0;dashed=1;dashPattern=12 12;fillColor=#d5e8d4;strokeColor=#82b366;" edge="1" parent="sUiCVh5vbbhOsQEW06W4-1" source="sUiCVh5vbbhOsQEW06W4-2" target="xW093bFwyCX6SYe29IJH-0">
          <mxGeometry width="50" height="50" relative="1" as="geometry">
            <mxPoint x="480" y="410" as="sourcePoint" />
            <mxPoint x="270" y="320" as="targetPoint" />
          </mxGeometry>
        </mxCell>
      </root>
    </mxGraphModel>
  </diagram>
</mxfile>
